<?xml version="1.0" standalone="no"?>
<!DOCTYPE svg PUBLIC "-//W3C//DTD SVG 20010904//EN"
 "http://www.w3.org/TR/2001/REC-SVG-20010904/DTD/svg10.dtd">
<svg version="1.0" xmlns="http://www.w3.org/2000/svg"
 width="1080.000000pt" height="1080.000000pt" viewBox="0 0 1080.000000 1080.000000"
 preserveAspectRatio="xMidYMid meet">
<metadata>
Created by potrace 1.14, written by Peter Selinger 2001-2017
</metadata>
<g transform="translate(0.000000,1080.000000) scale(0.100000,-0.100000)"
fill="#000000" stroke="none">
<path d="M7490 8660 c-232 -43 -317 -62 -350 -77 -19 -8 -57 -21 -85 -28 -194
-50 -251 -76 -445 -203 -120 -79 -150 -105 -306 -262 -117 -118 -184 -215
-245 -355 -12 -27 -27 -57 -34 -65 -7 -8 -18 -33 -25 -55 -7 -22 -25 -65 -40
-95 -48 -96 -78 -223 -90 -373 -6 -76 -17 -164 -26 -195 -16 -61 -22 -125 -33
-349 -6 -144 -12 -165 -48 -168 -10 -1 -40 -8 -67 -16 -38 -11 -57 -24 -83
-58 -18 -25 -32 -50 -29 -57 3 -8 0 -11 -8 -8 -17 6 -40 -22 -30 -37 5 -9 2
-10 -9 -6 -8 3 -20 0 -25 -6 -17 -22 -61 -162 -67 -214 -9 -70 4 -241 20 -256
16 -17 28 -67 15 -67 -16 0 -12 -142 5 -184 10 -23 13 -50 9 -75 -4 -24 -2
-41 5 -45 6 -4 11 -22 11 -39 0 -18 4 -48 10 -67 13 -49 40 -236 40 -281 0
-20 -7 -42 -15 -49 -8 -7 -15 -18 -15 -25 0 -16 -95 -189 -127 -232 -13 -18
-37 -65 -53 -104 -16 -40 -33 -75 -38 -78 -4 -3 -18 -20 -30 -38 -13 -19 -28
-30 -36 -27 -8 3 -17 1 -20 -4 -7 -11 -56 -3 -56 9 0 5 -6 9 -12 9 -7 -1 -2
-10 12 -21 14 -11 32 -26 42 -34 9 -7 24 -15 35 -17 10 -2 17 -10 15 -17 -2
-8 6 -20 18 -28 11 -8 20 -21 20 -29 0 -8 5 -14 11 -14 5 0 8 -4 4 -9 -3 -6 6
-18 20 -28 14 -10 78 -69 143 -132 147 -143 220 -211 203 -188 -8 9 -11 20 -7
24 3 3 6 1 6 -5 0 -7 7 -12 16 -12 9 0 14 -6 11 -13 -8 -20 41 -73 64 -69 10
2 19 -2 19 -7 0 -6 -5 -11 -11 -11 -5 0 -7 -5 -4 -11 4 -6 13 -8 21 -5 8 3 14
1 14 -4 0 -6 -5 -10 -11 -10 -6 0 5 -15 24 -32 38 -38 74 -94 65 -104 -4 -3
-28 11 -53 31 -25 21 -48 35 -52 32 -3 -4 -12 1 -18 10 -12 16 -14 16 -29 0
-10 -9 -23 -17 -29 -17 -7 0 -4 5 6 11 24 14 21 30 -10 57 -16 13 -21 20 -13
16 13 -7 13 -6 1 10 -11 13 -16 14 -22 4 -8 -12 -13 -4 -10 15 2 10 -27 35
-86 77 -48 35 -55 36 -46 13 4 -13 -1 -11 -15 6 -12 13 -22 28 -22 32 0 4 -10
11 -22 15 -23 6 -94 36 -133 55 -11 5 -35 14 -53 19 -30 8 -32 8 -20 -7 12
-15 11 -15 -10 -4 -29 15 -38 9 -22 -16 11 -17 11 -17 5 2 -4 13 -3 17 4 10 5
-5 11 -21 13 -35 l5 -25 11 25 c6 14 11 20 11 13 1 -6 4 -20 7 -30 4 -13 3
-14 -4 -5 -7 11 -10 11 -15 -1 -3 -8 3 -23 14 -33 19 -17 20 -17 13 2 -5 15
-4 16 4 4 6 -8 9 -17 6 -21 -7 -13 37 -79 49 -72 7 4 8 0 4 -11 -5 -14 -3 -17
8 -13 8 4 17 2 20 -3 4 -6 20 -10 36 -10 22 0 28 -4 22 -12 -4 -7 -6 -21 -5
-30 2 -10 -2 -18 -7 -18 -6 0 -11 -5 -11 -11 0 -5 5 -7 12 -3 8 5 9 2 5 -9 -8
-22 22 -39 46 -26 21 12 40 2 33 -18 -3 -8 -1 -24 5 -36 11 -21 10 -21 -11 2
-18 18 -20 25 -9 32 7 4 10 11 7 15 -4 3 -14 -1 -23 -9 -14 -15 -10 -21 45
-66 59 -49 77 -61 65 -42 -11 19 17 23 36 5 23 -21 26 -49 4 -40 -26 9 -17 0
28 -30 23 -16 48 -35 55 -42 8 -7 30 -25 50 -40 21 -15 40 -31 43 -36 4 -5 11
-6 15 -3 5 3 18 -1 29 -9 10 -8 14 -14 9 -14 -6 0 -14 3 -20 7 -5 5 -1 -1 9
-12 15 -17 19 -18 27 -5 5 8 7 17 5 20 -2 3 5 6 15 6 18 0 18 -1 -2 -20 l-21
-20 28 -23 c18 -16 34 -22 48 -18 15 4 18 3 9 -3 -11 -7 -10 -10 3 -16 22 -8
23 -8 28 7 2 6 2 2 1 -10 -3 -16 4 -25 26 -35 17 -7 30 -19 30 -25 0 -16 12
-17 27 -2 6 6 19 9 29 6 16 -4 16 -5 -2 -6 -12 0 -24 -8 -28 -16 -3 -8 -2 -14
3 -12 4 1 19 -11 33 -28 20 -23 29 -27 39 -18 11 8 18 7 28 -5 13 -14 12 -15
-7 -10 -12 4 -22 2 -22 -3 0 -5 3 -9 8 -9 4 0 20 -11 35 -26 15 -14 31 -22 36
-19 5 3 13 0 17 -6 5 -8 3 -9 -7 -4 -11 6 -11 5 -2 -5 7 -7 16 -9 25 -4 7 5
23 9 35 9 l23 1 -21 -22 c-16 -17 -17 -23 -6 -32 8 -7 17 -8 21 -4 4 4 6 0 4
-8 -2 -10 3 -14 16 -12 10 2 15 -1 12 -6 -3 -6 15 -26 41 -45 27 -20 67 -51
90 -69 51 -41 277 -222 358 -288 60 -49 156 -125 405 -322 74 -59 153 -123
175 -143 22 -20 64 -55 93 -77 l53 -41 37 17 c20 10 67 35 103 57 71 43 69 38
84 150 4 25 11 52 15 59 6 10 55 16 187 21 98 5 196 12 218 15 22 4 44 7 49 6
4 -2 14 3 22 9 8 6 14 8 14 3 0 -5 4 -3 9 5 8 12 12 12 25 2 14 -12 16 -10 16
7 0 15 9 22 30 27 17 4 30 10 30 13 0 9 47 29 88 36 42 7 59 28 123 146 28 52
62 109 74 125 12 17 32 49 43 71 12 23 29 44 39 46 10 3 23 16 30 29 6 13 34
71 62 129 28 58 55 112 60 120 5 8 21 68 36 133 28 122 67 215 109 260 25 27
56 83 56 100 0 6 15 42 34 81 94 196 127 276 185 446 61 178 84 254 96 313 3
17 12 27 23 27 44 0 172 54 246 104 129 87 194 167 276 338 67 139 86 162 136
160 24 -1 48 6 63 17 21 16 23 23 17 65 -7 44 -14 52 -144 171 -155 140 -264
225 -333 261 -26 13 -50 32 -53 41 -10 31 37 216 61 242 15 16 23 42 28 84 4
38 18 86 36 123 l31 61 -16 174 c-8 96 -24 203 -34 239 -34 115 -43 153 -62
260 -16 83 -17 112 -9 138 13 39 9 67 -22 145 -19 50 -20 61 -9 82 10 19 11
33 2 62 -14 49 -42 194 -42 221 0 55 -95 289 -155 382 -48 73 -72 95 -148 130
-34 16 -53 33 -66 59 -26 50 -221 245 -271 271 -22 11 -62 37 -86 56 -25 19
-80 50 -122 69 -41 20 -89 46 -106 58 -37 27 -81 47 -103 47 -8 0 -31 14 -51
31 -20 18 -61 43 -92 58 -53 24 -62 25 -305 29 -158 3 -272 0 -309 -7 -40 -7
-63 -8 -70 -1 -15 15 -149 10 -256 -10z m677 -796 c-3 -3 -12 -4 -19 -1 -8 3
-5 6 6 6 11 1 17 -2 13 -5z m168 -894 c3 -5 1 -10 -4 -10 -6 0 -11 5 -11 10 0
6 2 10 4 10 3 0 8 -4 11 -10z m-95 -290 l0 -40 -42 -2 -43 -1 43 -4 c39 -4 42
-6 42 -34 0 -27 -2 -29 -40 -29 -22 0 -40 5 -40 10 0 6 -19 10 -42 10 -24 0
-56 7 -72 15 -36 19 -46 19 -46 0 0 -21 -13 -19 -35 5 -11 12 -32 21 -54 21
-23 1 -28 3 -13 6 12 2 22 9 22 14 0 5 18 9 40 9 22 0 40 5 40 10 0 6 33 10
80 10 73 0 80 2 80 20 0 17 7 20 40 20 l40 0 0 -40z m-805 -225 l90 -14 -108
3 c-65 2 -112 7 -119 14 -16 16 18 15 137 -3z m-1620 -123 c-3 -3 -11 0 -18 7
-9 10 -8 11 6 5 10 -3 15 -9 12 -12z m-294 -115 c-8 -8 -11 -7 -11 4 0 9 3 19
7 23 4 4 9 2 11 -4 3 -7 -1 -17 -7 -23z m5 -57 c8 0 14 5 14 11 0 5 5 7 11 4
6 -5 2 -13 -11 -22 -19 -13 -24 -13 -31 -2 -6 10 -10 5 -15 -19 -4 -18 -9 -30
-12 -28 -2 3 2 26 9 52 10 33 15 41 17 26 2 -12 10 -22 18 -22z m-29 -102 c-3
-8 -6 -5 -6 6 -1 11 2 17 5 13 3 -3 4 -12 1 -19z m313 -17 c15 -29 12 -41 -9
-41 -20 0 -37 32 -26 50 10 16 23 12 35 -9z m-50 -21 c0 -11 -7 -20 -15 -20
-13 0 -14 4 -5 20 6 11 13 20 15 20 3 0 5 -9 5 -20z m-299 -31 l-10 -24 0 26
c-1 14 2 29 6 33 12 12 14 -9 4 -35z m42 1 c-3 -11 -9 -20 -14 -20 -14 0 -11
28 4 33 6 3 13 6 14 6 0 1 -1 -8 -4 -19z m4 -102 c-3 -7 -5 -2 -5 12 0 14 2
19 5 13 2 -7 2 -19 0 -25z m2337 -8 c79 -69 123 -120 148 -170 43 -89 42 -94
-22 -101 -41 -4 -82 2 -164 23 -60 15 -114 33 -122 39 -10 8 -4 22 32 69 33
43 46 71 50 107 11 79 21 84 78 33z m-2367 -52 c-2 -13 -4 -3 -4 22 0 25 2 35
4 23 2 -13 2 -33 0 -45z m640 20 c-3 -8 -6 -5 -6 6 -1 11 2 17 5 13 3 -3 4
-12 1 -19z m2638 -18 c18 -8 17 -9 -7 -9 -16 -1 -28 4 -28 9 0 12 8 12 35 0z
m-3148 -62 c-3 -8 -6 -5 -6 6 -1 11 2 17 5 13 3 -3 4 -12 1 -19z m-100 -55
c-3 -10 -5 -2 -5 17 0 19 2 27 5 18 2 -10 2 -26 0 -35z m294 -56 c-7 -7 -12
-5 -17 7 -4 11 -1 21 7 27 17 11 26 -18 10 -34z m-304 -24 c-3 -10 -5 -2 -5
17 0 19 2 27 5 18 2 -10 2 -26 0 -35z m2101 38 c11 -7 10 -10 -3 -15 -19 -7
-35 0 -35 15 0 11 20 12 38 0z m-1986 -51 c3 -16 1 -30 -4 -30 -4 0 -8 14 -8
30 0 17 2 30 4 30 2 0 6 -13 8 -30z m187 2 c6 -11 6 -24 0 -33 -5 -7 -6 -26
-3 -41 5 -24 2 -28 -15 -28 -19 0 -21 6 -21 60 0 46 3 60 15 60 8 0 19 -8 24
-18z m-282 -34 c-3 -7 -5 -2 -5 12 0 14 2 19 5 13 2 -7 2 -19 0 -25z m-17 -16
c0 -15 -2 -15 -10 -2 -13 20 -13 33 0 25 6 -3 10 -14 10 -23z m500 -37 c0 -8
-7 -15 -15 -15 -16 0 -20 12 -8 23 11 12 23 8 23 -8z m3714 -1 c9 -3 16 -11
16 -18 0 -18 38 -46 55 -40 9 4 19 -3 26 -20 7 -14 16 -26 21 -26 9 0 45 -39
62 -68 36 -62 44 -80 51 -109 l7 -33 -55 0 c-35 0 -57 -5 -60 -12 -3 -10 -28
-12 -93 -10 -95 3 -102 7 -115 64 -7 32 -1 42 16 28 9 -7 16 -6 25 5 10 13 9
15 -9 15 -25 0 -26 11 -7 48 8 15 17 54 21 87 7 62 14 95 20 95 2 0 10 -3 19
-6z m-3904 -44 c0 -5 -2 -10 -4 -10 -3 0 -8 5 -11 10 -3 6 -1 10 4 10 6 0 11
-4 11 -10z m1510 0 c0 -5 -2 -10 -4 -10 -3 0 -8 5 -11 10 -3 6 -1 10 4 10 6 0
11 -4 11 -10z m-1770 -41 c0 -5 -4 -9 -10 -9 -5 0 -10 7 -10 16 0 8 5 12 10 9
6 -3 10 -10 10 -16z m1497 -1 c-3 -8 -6 -5 -6 6 -1 11 2 17 5 13 3 -3 4 -12 1
-19z m84 -8 c5 0 9 -18 9 -40 0 -36 -2 -40 -25 -40 -28 0 -34 17 -9 27 12 5
15 15 11 47 -3 23 -3 33 0 24 2 -10 9 -18 14 -18z m-1276 -9 c-6 -5 -25 10
-25 20 0 5 6 4 14 -3 8 -7 12 -15 11 -17z m-335 -3 c0 -19 -2 -20 -10 -8 -13
19 -13 30 0 30 6 0 10 -10 10 -22z m1798 9 c6 -7 13 -26 16 -42 3 -17 10 -31
16 -33 5 -2 10 -16 10 -32 l0 -29 -40 17 c-22 9 -40 22 -40 29 0 6 -12 21 -27
32 l-28 21 25 19 c14 11 27 16 28 11 2 -6 8 -10 14 -10 6 0 8 7 4 15 -7 18 8
20 22 2z m81 -72 c9 -11 12 -16 6 -12 -5 4 -15 -3 -22 -15 -11 -22 -12 -22
-13 -3 -1 11 -3 36 -5 54 -2 29 -1 32 7 15 6 -10 18 -28 27 -39z m-1639 5 c0
-22 -2 -40 -5 -40 -11 0 -25 43 -20 60 11 34 25 22 25 -20z m60 -3 c27 -22 45
-66 32 -79 -9 -9 -12 -8 -12 5 0 11 -8 17 -25 17 -24 0 -45 25 -45 54 0 19 29
20 50 3z m1350 -42 c0 -19 -8 -44 -17 -55 -21 -24 -33 -26 -33 -5 0 8 7 15 15
15 11 0 15 11 15 40 0 22 5 40 10 40 6 0 10 -16 10 -35z m252 -13 c13 -25 13
-28 -4 -28 -13 0 -18 8 -18 28 0 15 2 28 4 28 3 0 11 -13 18 -28z m1875 -69
c49 -59 83 -141 63 -153 -23 -14 -144 -10 -200 7 -72 21 -78 28 -43 46 39 20
99 83 114 119 6 15 15 28 19 28 4 0 25 -21 47 -47z m-1817 -21 c16 -8 34 -11
39 -8 5 4 12 2 15 -3 9 -14 -62 -5 -79 9 -8 7 -14 20 -14 29 1 13 2 13 5 1 3
-9 18 -21 34 -28z m18 20 c6 -18 -15 -14 -22 4 -4 10 -1 14 6 12 6 -2 14 -10
16 -16z m92 -68 c0 -2 -7 -4 -15 -4 -8 0 -15 4 -15 10 0 5 7 7 15 4 8 -4 15
-8 15 -10z m59 -40 c14 -12 -19 -1 -35 12 -18 14 -18 14 6 3 14 -6 27 -13 29
-15z m1986 16 c3 -4 42 -6 87 -3 51 2 84 0 88 -7 4 -6 36 -13 73 -17 60 -5 67
-8 67 -27 0 -28 -24 -94 -38 -108 -7 -7 -12 -20 -12 -30 0 -21 -15 -24 -24 -5
-4 6 -4 1 -2 -12 5 -26 -12 -71 -27 -71 -5 0 -7 -7 -3 -15 3 -9 0 -15 -9 -15
-7 0 -15 -10 -17 -22 -2 -12 -13 -28 -25 -34 -13 -6 -20 -14 -17 -17 4 -4 -5
-11 -20 -16 -14 -6 -26 -17 -26 -26 0 -8 -5 -15 -12 -15 -6 0 -18 -7 -27 -15
-36 -33 -59 -51 -79 -62 -26 -16 -43 -17 -22 -2 12 8 9 9 -12 5 -14 -3 -33 -9
-42 -12 -9 -3 -16 -1 -16 5 0 6 7 11 16 11 14 0 16 7 11 40 -4 31 -2 40 10 40
8 0 17 -9 20 -19 5 -19 31 -36 41 -26 3 2 -1 11 -8 20 -18 22 -4 31 24 16 24
-14 46 -8 46 11 0 5 15 24 33 41 29 28 30 31 12 35 -10 2 -21 -1 -23 -7 -2 -6
-8 -11 -14 -11 -6 0 -8 6 -5 14 4 10 0 12 -14 9 -16 -5 -19 0 -19 36 0 22 -4
41 -10 41 -5 0 -10 18 -10 40 0 23 -5 40 -11 40 -7 0 -17 7 -24 17 -7 9 -17
13 -23 9 -18 -11 -14 -26 5 -26 14 0 14 -3 -4 -22 -26 -30 -36 -58 -20 -58 9
0 11 -13 9 -40 -3 -31 -8 -40 -23 -40 -23 0 -40 63 -27 100 9 27 30 114 43
176 7 34 15 66 18 71 8 12 55 14 62 3z m-2058 -6 c-3 -3 -12 -4 -19 -1 -8 3
-5 6 6 6 11 1 17 -2 13 -5z m-437 -68 c0 -25 -4 -48 -10 -51 -6 -4 -10 13 -10
44 0 28 5 51 10 51 6 0 10 -20 10 -44z m244 -1 c34 -35 52 -43 58 -25 2 6 8 6
18 0 13 -8 12 -10 -2 -10 -10 0 -18 -7 -18 -15 0 -10 10 -15 33 -15 43 -1 147
-26 160 -39 6 -6 24 -11 39 -11 26 0 28 -3 28 -40 0 -22 -4 -40 -10 -40 -5 0
-10 9 -10 20 0 11 -4 20 -10 20 -5 0 -15 -9 -22 -20 -7 -11 -21 -20 -30 -20
-14 0 -18 -8 -18 -35 0 -34 -1 -35 -40 -35 l-40 0 0 -45 0 -45 -80 0 -80 0 0
80 0 80 -40 0 -40 0 0 40 c0 33 3 40 20 40 17 0 20 7 20 40 0 33 -3 40 -20 40
-15 0 -20 -7 -20 -25 0 -29 -7 -31 -32 -8 -25 23 -23 43 10 75 40 40 84 37
126 -7z m1336 -80 c0 -8 -7 -15 -15 -15 -9 0 -15 -9 -15 -25 0 -14 7 -28 15
-31 8 -4 15 -14 15 -23 0 -9 18 -35 40 -56 44 -43 51 -74 20 -93 -11 -7 -20
-17 -20 -22 0 -6 9 -10 20 -10 17 0 20 -7 20 -40 l0 -40 -40 0 c-34 0 -40 3
-40 21 0 12 -8 28 -17 35 -16 12 -16 15 -3 23 12 8 11 11 -5 17 -11 5 -20 3
-23 -4 -2 -7 -17 -12 -32 -12 -23 0 -33 8 -51 40 -21 37 -26 40 -66 40 -32 0
-43 4 -43 16 0 11 -6 14 -22 8 -13 -3 -24 -11 -26 -15 -5 -12 -32 -11 -32 1 0
6 -7 10 -15 10 -8 0 -15 7 -15 15 0 7 -8 18 -17 24 -28 15 -2 37 26 22 17 -9
22 -8 30 8 7 12 26 22 50 26 22 4 45 13 52 21 10 13 15 12 37 -2 20 -13 26
-14 33 -3 4 7 5 17 3 21 -8 13 15 9 40 -7 23 -15 23 -15 19 10 -4 20 -1 25 15
25 11 0 25 7 32 15 7 8 16 15 21 15 5 0 9 -7 9 -15z m-393 -175 c-8 -14 -23
-20 -49 -20 -21 0 -38 5 -38 10 0 6 18 10 40 10 30 0 40 4 40 16 0 8 4 12 10
9 6 -4 5 -13 -3 -25z m1261 -40 c6 0 12 -9 12 -20 0 -20 -4 -21 -65 -25 -15 0
-19 -6 -17 -23 3 -21 1 -22 -16 -11 -18 11 -18 14 -3 43 20 40 31 47 56 41 11
-2 26 -5 33 -5z m-1718 -45 c0 -8 -4 -15 -10 -15 -5 0 -10 7 -10 15 0 8 5 15
10 15 6 0 10 -7 10 -15z m-30 -24 c0 -12 59 -71 71 -71 5 0 9 5 9 11 0 14 24
-11 33 -34 4 -11 16 -21 27 -24 11 -3 21 -10 22 -17 0 -6 2 -16 2 -22 2 -22
29 -44 51 -44 13 0 25 -5 27 -12 3 -8 44 -13 121 -16 68 -3 117 -9 117 -14 0
-6 9 -8 20 -5 24 6 46 -19 42 -46 -3 -15 0 -18 12 -14 10 4 16 1 16 -8 0 -11
-12 -15 -45 -15 -44 0 -45 1 -45 31 l0 32 -60 -6 c-33 -4 -87 -4 -120 0 -50 5
-60 9 -60 24 0 15 -8 19 -40 19 l-40 0 0 -40 0 -40 56 0 c38 0 54 -4 52 -12
-3 -8 -43 -11 -136 -9 l-132 2 0 -30 c0 -29 -2 -31 -40 -31 -22 0 -40 -4 -40
-10 0 -5 -18 -10 -40 -10 -22 0 -40 5 -40 10 0 6 -4 10 -10 10 -5 0 -10 -18
-10 -40 0 -29 -4 -40 -15 -40 -11 0 -15 11 -15 40 0 29 -4 40 -15 40 -12 0
-15 16 -15 80 l0 80 80 0 80 0 0 120 0 120 40 0 c22 0 40 -4 40 -9z m828 -59
c2 -7 -3 -12 -12 -12 -9 0 -16 7 -16 16 0 17 22 14 28 -4z m823 -35 c-13 -13
-26 -3 -16 12 3 6 11 8 17 5 6 -4 6 -10 -1 -17z m9 -33 c0 -2 -7 -4 -15 -4 -8
0 -15 4 -15 10 0 5 7 7 15 4 8 -4 15 -8 15 -10z m30 6 c0 -5 -5 -10 -11 -10
-5 0 -7 5 -4 10 3 6 8 10 11 10 2 0 4 -4 4 -10z m-4275 -150 c-3 -5 -11 -10
-16 -10 -6 0 -7 5 -4 10 3 6 11 10 16 10 6 0 7 -4 4 -10z m2322 -236 c-3 -3
-12 -4 -19 -1 -8 3 -5 6 6 6 11 1 17 -2 13 -5z m-60 -20 c-3 -3 -12 -4 -19 -1
-8 3 -5 6 6 6 11 1 17 -2 13 -5z m639 -106 c4 -5 -31 -8 -77 -7 -46 1 -73 4
-60 7 32 9 128 9 137 0z m181 -2 c9 -9 -74 -6 -122 4 -32 6 -25 8 38 5 43 -1
80 -5 84 -9z m-2979 -29 c8 0 9 -4 3 -10 -12 -12 -54 -5 -59 12 -3 10 2 11 19
5 13 -4 30 -7 37 -7z m2652 3 c-14 -4 -34 -8 -45 -9 -16 -1 -17 1 -5 9 8 5 29
9 45 9 29 -1 29 -1 5 -9z m-2618 -27 c-6 -2 -10 -9 -6 -14 3 -5 1 -9 -5 -9 -5
0 -12 4 -15 9 -6 9 10 19 29 19 6 0 4 -2 -3 -5z m68 -19 c0 -2 -12 -4 -27 -4
-21 0 -24 3 -14 9 13 8 41 5 41 -5z m-107 -39 c-2 -58 -2 -57 -14 -49 -6 3 -7
9 -3 13 5 3 10 21 11 39 1 25 -2 32 -13 28 -8 -3 -14 -1 -14 5 0 6 8 9 18 7
13 -3 17 -12 15 -43z m99 -17 c-9 -9 -12 -7 -12 12 0 19 3 21 12 12 9 -9 9
-15 0 -24z m188 -67 c0 -9 -28 -41 -35 -41 -3 0 -2 7 1 15 4 8 10 15 16 15 5
0 6 5 3 10 -3 6 -1 10 4 10 6 0 11 -4 11 -9z m70 -81 c0 -5 -4 -10 -10 -10 -5
0 -10 5 -10 10 0 6 5 10 10 10 6 0 10 -4 10 -10z m-110 -134 c0 -23 -13 -26
-35 -9 -19 15 -19 15 4 8 16 -5 21 -4 17 4 -4 6 -2 11 3 11 6 0 11 -6 11 -14z
m442 -23 c19 -17 23 -40 9 -62 -7 -11 -16 -8 -45 15 -44 35 -48 64 -9 64 14 0
35 -7 45 -17z m-349 -50 c-16 -3 -20 -9 -16 -21 6 -14 5 -15 -9 -2 -18 17 -6
30 27 28 18 -1 18 -1 -2 -5z m25 -22 c8 -4 19 -19 26 -32 8 -17 19 -23 36 -22
l25 3 -22 -12 c-24 -12 -53 3 -53 27 0 7 -9 15 -20 18 -11 3 -20 10 -20 16 0
13 10 14 28 2z m382 -47 c0 -20 -7 -17 -20 6 -9 16 -8 18 5 14 8 -4 15 -12 15
-20z m-274 -62 c-3 -2 -12 2 -20 10 -11 12 -12 18 -3 27 9 9 13 6 19 -10 5
-12 6 -24 4 -27z m354 -56 c0 -3 -4 -8 -10 -11 -5 -3 -10 -1 -10 4 0 6 5 11
10 11 6 0 10 -2 10 -4z m10 -59 c0 -7 -4 -6 -10 3 -8 12 -10 12 -10 1 0 -8 -3
-12 -6 -8 -9 9 6 28 17 22 5 -4 9 -12 9 -18z m-150 -22 c14 -16 10 -18 -14 -9
-9 3 -16 10 -16 15 0 14 16 11 30 -6z m180 -165 c0 -5 -2 -10 -4 -10 -3 0 -8
5 -11 10 -3 6 -1 10 4 10 6 0 11 -4 11 -10z m165 -70 c3 -5 1 -10 -4 -10 -6 0
-11 5 -11 10 0 6 2 10 4 10 3 0 8 -4 11 -10z m-35 -20 c0 -5 -2 -10 -4 -10 -3
0 -8 5 -11 10 -3 6 -1 10 4 10 6 0 11 -4 11 -10z m80 -75 c20 -24 6 -28 -15
-5 -10 11 -13 20 -8 20 6 0 16 -7 23 -15z"/>
<path d="M7968 6633 c6 -2 18 -2 25 0 6 3 1 5 -13 5 -14 0 -19 -2 -12 -5z"/>
<path d="M9840 5360 c0 -5 7 -10 16 -10 8 0 12 5 9 10 -3 6 -10 10 -16 10 -5
0 -9 -4 -9 -10z"/>
<path d="M9840 5295 c0 -8 2 -15 4 -15 2 0 6 7 10 15 3 8 1 15 -4 15 -6 0 -10
-7 -10 -15z"/>
<path d="M9586 5124 c-4 -9 -3 -20 0 -23 4 -3 9 0 11 7 3 6 11 12 19 12 19 0
18 -54 -1 -74 -8 -8 -15 -23 -15 -33 0 -15 4 -14 20 7 l20 25 20 -25 20 -25 0
23 c0 12 -6 22 -13 22 -8 0 -14 15 -15 37 -3 42 -7 48 -38 57 -15 5 -24 2 -28
-10z"/>
<path d="M9700 5130 c0 -5 5 -10 11 -10 5 0 7 5 4 10 -3 6 -8 10 -11 10 -2 0
-4 -4 -4 -10z"/>
<path d="M9570 5029 c0 -5 5 -7 10 -4 6 3 10 8 10 11 0 2 -4 4 -10 4 -5 0 -10
-5 -10 -11z"/>
<path d="M9840 5000 c0 -19 3 -21 12 -12 9 9 9 15 0 24 -9 9 -12 7 -12 -12z"/>
<path d="M9840 4921 c0 -10 -7 -24 -15 -31 -8 -7 -15 -18 -14 -24 0 -7 2 -6 6
2 2 6 11 12 19 12 9 0 14 11 14 30 0 17 -2 30 -5 30 -3 0 -5 -8 -5 -19z"/>
<path d="M8580 4810 c0 -5 5 -10 11 -10 5 0 7 5 4 10 -3 6 -8 10 -11 10 -2 0
-4 -4 -4 -10z"/>
<path d="M7920 4614 c0 -26 33 -57 55 -52 13 2 8 11 -19 37 -32 31 -36 32 -36
15z"/>
<path d="M5392 3821 c10 -16 15 -17 26 -8 12 9 11 12 -5 18 -30 12 -34 10 -21
-10z"/>
<path d="M6265 3099 c-4 -6 -5 -13 -2 -16 7 -7 27 6 27 18 0 12 -17 12 -25 -2z"/>
</g>
</svg>
